<?xml version="1.0" encoding="UTF-8" standalone="no"?>
<!-- Created with Inkscape (http://www.inkscape.org/) -->

<svg
   width="90px"
   height="45px"
   viewBox="0 0 140 70"
   version="1.1"
   id="svg5"
   inkscape:version="1.1.2 (0a00cf5339, 2022-02-04)"
   sodipodi:docname="ICPTutto.svg"
   xmlns:inkscape="http://www.inkscape.org/namespaces/inkscape"
   xmlns:sodipodi="http://sodipodi.sourceforge.net/DTD/sodipodi-0.dtd"
   xmlns="http://www.w3.org/2000/svg"
   xmlns:svg="http://www.w3.org/2000/svg">
  <sodipodi:namedview
     id="namedview7"
     pagecolor="#ffffff"
     bordercolor="#666666"
     borderopacity="1.0"
     inkscape:pageshadow="2"
     inkscape:pageopacity="0.0"
     inkscape:pagecheckerboard="0"
     inkscape:document-units="px"
     showgrid="false"
     inkscape:zoom="0.70710678"
     inkscape:cx="306.17724"
     inkscape:cy="228.39549"
     inkscape:window-width="1366"
     inkscape:window-height="704"
     inkscape:window-x="0"
     inkscape:window-y="27"
     inkscape:window-maximized="1"
     inkscape:current-layer="g4173"
     units="mm"
     height="95mm" />
  <defs
     id="defs2">
    <linearGradient
       id="linearGradient46760"
       inkscape:swatch="solid">
      <stop
         style="stop-color:#800080;stop-opacity:1;"
         offset="0"
         id="stop46758" />
    </linearGradient>
    <inkscape:perspective
       sodipodi:type="inkscape:persp3d"
       inkscape:vp_x="12.403797 : 3.672225 : 1"
       inkscape:vp_y="0 : 999.99997 : 0"
       inkscape:vp_z="222.40379 : 3.672225 : 1"
       inkscape:persp3d-origin="117.4038 : -45.827767 : 1"
       id="perspective37" />
  </defs>
  <g
     inkscape:label="Capa 1"
     inkscape:groupmode="layer"
     id="layer1">
    <g
       sodipodi:type="inkscape:box3d"
       id="g39"
       style="fill-rule:evenodd;stroke:none;stroke-linejoin:round"
       inkscape:perspectiveID="#perspective37"
       inkscape:corner0="1.6199418 : -0.071681843 : 0 : 1"
       inkscape:corner7="0.39343449 : 0.02601138 : 1.3103646 : 1" />
    <g
       id="g3439">
      <g
         id="g4173">
        <path
           style="color:#000000;fill:#800080;stroke:#800080;stroke-width:10.5569;stroke-linecap:round;stroke-linejoin:round;stroke-miterlimit:4;stroke-dasharray:none;stroke-opacity:1"
           d="m 42.448046,6.4737331 c -6.270353,0 -12.539703,2.38345 -17.304687,7.1484399 -9.52996,9.52995 -9.529971,25.08137 0,34.61132 9.529959,9.52997 25.081369,9.52996 34.611329,0 4.18754,-4.18754 14.769534,-15.06054 14.769534,-15.06054 a 3.3076208,3.3076208 0 0 0 -0.0117,-4.62696 c 0,0 -10.593114,-10.75913 -14.757814,-14.92382 C 54.989728,8.8571831 48.718418,6.4737331 42.448066,6.4737331 Z m 0,6.5742199 c 4.563686,0 9.127802,1.74889 12.628902,5.25 3.46482,3.46481 9.99956,10.10499 12.43555,12.57812 -2.42975,2.49347 -8.98696,9.23111 -12.43555,12.67969 -7.002199,7.0022 -18.253651,7.00221 -25.255855,0 -7.002214,-7.00221 -7.002205,-18.25561 0,-25.25781 3.501107,-3.50111 8.063267,-5.25 12.626953,-5.25 z"
           id="path6267" />
        <path
           style="color:#000000;fill:#800080;stroke:#800080;stroke-width:10.5833;stroke-linecap:round;stroke-linejoin:round;stroke-miterlimit:4;stroke-dasharray:none"
           d="m 101.9675,6.7500731 c -6.270348,0 -12.539708,2.3834497 -17.304688,7.1484399 -4.1647,4.16469 -14.75781,14.92382 -14.75781,14.92382 a 3.3076208,3.3076208 0 0 0 -0.0137,4.62696 c 0,0 10.58394,10.873 14.77148,15.06054 9.52996,9.52996 25.081368,9.52997 34.611328,0 9.52997,-9.52995 9.52996,-25.08137 0,-34.61132 -4.76499,-4.7649902 -11.03629,-7.1484399 -17.30664,-7.1484399 z m 0,6.5742199 c 4.56368,0 9.1278,1.74889 12.6289,5.25 7.00221,7.0022 7.00222,18.2556 0,25.25781 -7.0022,7.00221 -18.255598,7.0022 -25.257808,0 -3.44858,-3.44858 -10.0058,-10.18622 -12.43555,-12.67969 2.43541,-2.47254 8.97051,-9.11308 12.43555,-12.57812 3.5011,-3.50111 8.06522,-5.25 12.628908,-5.25 z"
           id="path7962" />
        <g
           aria-label="ICP Tutorials"
           transform="matrix(0.89921469,0,0,1.7625337,-69.528752,-178.76083)"
           id="text13836"
           style="font-size:20.7656px;line-height:1.25;fill:#f2f2f2;stroke:#000000;stroke-width:0.519139"><path
   d="m 91.272178,139.84581 0.166124,-1.12134 h -0.456843 c -1.349764,0 -1.640482,-0.10383 -1.640482,-0.56067 0,-0.18689 0.08306,-0.60221 0.290718,-1.30824 l 2.40881,-9.01227 c 0.166125,-0.62296 0.249187,-0.97598 0.269953,-1.03828 0.103828,-0.31148 0.145359,-0.41531 0.290718,-0.5399 0.18689,-0.18689 0.622968,-0.26996 1.578186,-0.29072 h 0.145359 l 0.145359,-1.12134 h -7.745569 l -0.166125,1.12134 h 0.456844 c 1.370529,0 1.640482,0.10383 1.640482,0.56067 0,0.18689 -0.08306,0.58144 -0.290718,1.30823 l -2.40881,9.01227 c -0.166125,0.62297 -0.249187,0.97599 -0.269953,1.03828 -0.103828,0.31149 -0.166125,0.41532 -0.290718,0.53991 -0.166125,0.18689 -0.622968,0.26995 -1.578186,0.29072 h -0.145359 l -0.145359,1.12134 z"
   style="font-style:italic;font-weight:bold;font-family:C059;fill:#f2f2f2"
   id="path109" />

C059, Bold Italic&quot;;stroke:#000000;fill:#4d4d4d&quot;
             id=&quot;path46465&quot; /&gt;
          <path
   d="m 109.35898,125.0607 h -0.95522 l -1.16287,1.18364 c -0.97598,-1.16287 -2.18039,-1.70278 -3.84164,-1.70278 -4.859147,0 -9.074564,4.27772 -9.074564,9.24069 0,1.84814 0.664499,3.50939 1.806607,4.5892 1.162874,1.10058 3.135606,1.78584 5.108337,1.78584 1.8689,0 3.48862,-0.62296 4.63073,-1.76507 0.87215,-0.87216 1.49512,-1.88967 1.82737,-2.94872 h -1.30823 c -0.78909,2.01427 -2.658,3.40556 -4.54767,3.40556 -2.20115,0 -3.57168,-1.51589 -3.57168,-3.94546 0,-2.30498 0.747562,-5.00451 1.97273,-7.01878 0.85139,-1.45359 2.09733,-2.24268 3.46786,-2.24268 2.22192,0 3.32249,1.68201 3.42632,5.23293 l 1.01752,0.12459 z"
   style="font-style:italic;font-weight:bold;font-family:C059;fill:#f2f2f2"
   id="path111" />

C059, Bold Italic&quot;;stroke:#000000;fill:#4d4d4d&quot;
             id=&quot;path46467&quot; /&gt;
          <path
   d="m 115.52634,133.38771 h 1.66125 c 2.28421,0 3.69628,-0.20766 4.79685,-0.70603 1.61972,-0.7268 2.55417,-2.13886 2.55417,-3.90393 0,-1.24594 -0.51914,-2.30499 -1.49512,-2.99025 -0.93445,-0.6645 -2.28422,-0.93445 -4.67226,-0.93445 h -6.54117 l -0.14536,1.12134 h 0.29072 c 1.3913,0 1.66125,0.10383 1.66125,0.56067 0,0.20766 -0.0208,0.35302 -0.29072,1.30823 l -2.40881,8.99151 -0.14536,0.5399 -0.14536,0.51914 c -0.0831,0.29072 -0.14535,0.41532 -0.26995,0.53991 -0.18689,0.18689 -0.64373,0.26995 -1.57818,0.29072 h -0.0831 l -0.14536,1.12134 h 7.76634 l 0.14536,-1.12134 h -0.51914 c -1.37053,0 -1.66125,-0.10383 -1.66125,-0.56067 0,-0.18689 0.0623,-0.45685 0.29072,-1.329 z m 0.29072,-1.12134 1.39129,-5.1914 c 0.22843,-0.89292 0.47761,-1.12135 1.329,-1.10058 h 0.35302 c 1.18364,0 1.9312,0.85139 1.9312,2.15962 0,1.34977 -0.56067,2.76183 -1.34977,3.40556 -0.58143,0.47761 -1.47435,0.7268 -2.63723,0.7268 z"
   style="font-style:italic;font-weight:bold;font-family:C059;fill:#f2f2f2"
   id="path113" />

C059, Bold Italic&quot;;stroke:#000000;fill:#4d4d4d&quot;
             id=&quot;path46469&quot; /&gt;
          <path
   d="M 146.52934,124.85305 H 133.094 l -1.47436,5.52365 1.03828,0.35301 c 0.62297,-1.49512 1.16287,-2.4711 1.84814,-3.34326 0.76832,-0.99675 1.53665,-1.41206 2.5957,-1.41206 0.41531,0 0.6022,0.10383 0.6022,0.31148 0,0.10383 -0.0415,0.29072 -0.0831,0.47761 l -2.69953,10.09208 c -0.0831,0.29072 -0.16613,0.58144 -0.22842,0.87216 l -0.0623,0.16612 c -0.0831,0.31149 -0.14536,0.41532 -0.26995,0.53991 -0.18689,0.18689 -0.62297,0.26995 -1.57819,0.29072 h -0.56067 l -0.14536,1.12134 h 8.24394 l 0.14536,-1.12134 h -0.51914 c -1.37053,0 -1.66124,-0.10383 -1.66124,-0.56067 0,-0.18689 0.0415,-0.41532 0.29071,-1.30824 l 2.658,-9.94672 c 0.24919,-0.89292 0.29072,-0.93445 0.89292,-0.93445 1.57819,0 2.45034,1.2044 2.45034,3.40556 0,0.24918 -0.0208,0.76832 -0.0623,1.24593 l 1.10057,0.10383 z"
   style="font-style:italic;font-weight:bold;font-family:C059;fill:#f2f2f2"
   id="path115" />

C059, Bold Italic&quot;;stroke:#000000;fill:#4d4d4d&quot;
             id=&quot;path46471&quot; /&gt;
          <path
   d="m 158.19955,130.23134 h -3.28096 l -0.99675,3.40556 c -0.33225,1.10057 -0.78909,2.05579 -1.41206,2.90718 -0.74756,1.05905 -1.74431,1.84814 -2.28422,1.84814 -0.26995,0 -0.51914,-0.24919 -0.51914,-0.51914 0,-0.10383 0.16613,-0.7268 0.43608,-1.61972 l 1.8689,-6.31274 -5.25369,0.29072 -0.14536,0.97598 H 146.82 c 1.01752,0 1.26671,0.12459 1.26671,0.64373 0,0.20766 -0.0831,0.56068 -0.33225,1.37053 l -0.7268,2.51264 c -0.35301,1.18364 -0.43608,1.55742 -0.43608,2.13886 0,1.34976 0.91369,2.26345 2.28422,2.26345 1.329,0 2.47111,-0.68527 3.8001,-2.30498 -0.0208,0.20765 -0.0208,0.37378 -0.0208,0.5399 0,1.16288 0.68526,1.76508 2.01426,1.76508 1.57819,0 2.76183,-0.93445 4.40231,-3.44709 l -0.78909,-0.58144 c -0.89292,1.3913 -1.70278,2.26345 -2.0558,2.26345 -0.16612,0 -0.29072,-0.12459 -0.29072,-0.29072 0,-0.20765 0,-0.20765 0.33225,-1.39129 z"
   style="font-style:italic;font-weight:bold;font-family:C059;fill:#f2f2f2"
   id="path117" />

C059, Bold Italic&quot;;stroke:#000000;fill:#4d4d4d&quot;
             id=&quot;path46473&quot; /&gt;
          <path
   d="m 166.2566,136.06647 c -0.76833,1.329 -1.74431,2.40881 -2.15963,2.40881 -0.16612,0 -0.31148,-0.18689 -0.31148,-0.37378 0,-0.14536 0.16612,-0.80986 0.43608,-1.70278 l 1.45359,-4.90068 h 2.36728 l 0.37378,-1.2667 h -2.36728 l 1.14211,-3.88317 h -3.2602 l -1.16287,3.88317 h -1.80661 l -0.37378,1.2667 h 1.8066 l -1.34976,4.56843 c -0.49837,1.68201 -0.51914,1.78584 -0.51914,2.34651 0,0.95522 0.87216,1.72355 1.97273,1.72355 1.07981,0 2.09733,-0.53991 3.11484,-1.59895 0.41531,-0.47761 0.64374,-0.76833 1.41206,-1.9312 z"
   style="font-style:italic;font-weight:bold;font-family:C059;fill:#f2f2f2"
   id="path119" />

C059, Bold Italic&quot;;stroke:#000000;fill:#4d4d4d&quot;
             id=&quot;path46475&quot; /&gt;
          <path
   d="m 174.79124,129.91985 c -3.53015,0 -6.5204,2.78259 -6.5204,6.04279 0,1.20441 0.47761,2.40881 1.24594,3.11484 0.72679,0.70603 1.80661,1.05905 3.11484,1.05905 3.77934,0 6.64499,-2.67876 6.64499,-6.20892 0,-1.22517 -0.41531,-2.24268 -1.16287,-2.88641 -0.80986,-0.70603 -2.03503,-1.12135 -3.3225,-1.12135 z m -0.0831,0.97599 c 0.80986,0 1.34976,0.64373 1.34976,1.59895 0,1.10057 -0.45684,3.11484 -1.03828,4.5892 -0.56067,1.45359 -1.28746,2.15962 -2.20115,2.15962 -0.85139,0 -1.329,-0.6022 -1.329,-1.64048 0,-1.24594 0.39455,-3.11484 0.93445,-4.44384 0.62297,-1.49513 1.3913,-2.26345 2.28422,-2.26345 z"
   style="font-style:italic;font-weight:bold;font-family:C059;fill:#f2f2f2"
   id="path121" />

C059, Bold Italic&quot;;stroke:#000000;fill:#4d4d4d&quot;
             id=&quot;path46477&quot; /&gt;
          <path
   d="m 185.90082,129.91985 -5.1914,0.31149 -0.14536,0.97598 h 0.49838 c 1.01751,0 1.2667,0.12459 1.2667,0.64373 0,0.22843 -0.0831,0.58144 -0.31148,1.37053 l -1.97274,6.62423 h 3.2602 l 0.87216,-2.86565 c 0.58144,-1.9935 1.61972,-3.9247 2.61646,-4.90068 0.33225,-0.31149 0.68527,-0.53991 0.85139,-0.53991 0.14536,0 0.20766,0.0831 0.20766,0.26995 0,0.31149 0.0208,0.45685 0.0623,0.64374 0.14536,0.6022 0.72679,1.01751 1.39129,1.01751 0.89292,0 1.55742,-0.74756 1.55742,-1.72354 0,-1.12135 -0.74756,-1.82738 -1.9312,-1.82738 -1.37053,0 -2.38804,0.7268 -3.67551,2.658 z"
   style="font-style:italic;font-weight:bold;font-family:C059;fill:#f2f2f2"
   id="path123" />

C059, Bold Italic&quot;;stroke:#000000;fill:#4d4d4d&quot;
             id=&quot;path46479&quot; /&gt;
          <path
   d="m 197.21803,129.91985 -5.54441,0.31149 -0.14536,0.97598 h 0.49837 c 1.03828,0 1.26671,0.12459 1.26671,0.64373 0,0.22843 -0.0831,0.58144 -0.31149,1.37053 l -1.05904,3.53016 c -0.26996,0.93445 -0.31149,1.12134 -0.31149,1.51588 0,1.10058 0.89292,1.86891 2.15962,1.86891 1.57819,0 2.88642,-1.03828 4.29848,-3.38479 l -0.80985,-0.56068 c -1.01752,1.61972 -1.68202,2.34652 -2.09733,2.34652 -0.18689,0 -0.33225,-0.14536 -0.33225,-0.33225 0,-0.18689 0.0208,-0.24919 0.20766,-0.89292 z m -1.12134,-5.37829 c -0.97598,0 -1.76507,0.7891 -1.76507,1.76508 0,0.95522 0.78909,1.76507 1.74431,1.76507 0.99675,0 1.78584,-0.78909 1.78584,-1.76507 0,-0.97598 -0.78909,-1.76508 -1.76508,-1.76508 z"
   style="font-style:italic;font-weight:bold;font-family:C059;fill:#f2f2f2"
   id="path125" />

C059, Bold Italic&quot;;stroke:#000000;fill:#4d4d4d&quot;
             id=&quot;path46481&quot; /&gt;
          <path
   d="m 208.1615,130.23134 -0.29072,0.97598 c -0.49837,-0.85139 -1.37053,-1.2667 -2.5957,-1.2667 -3.07331,0 -5.93896,3.11484 -5.93896,6.4581 0,2.20115 1.49512,3.73781 3.59245,3.73781 1.43282,0 2.40881,-0.51914 3.38479,-1.80661 0,0.45684 0,0.49838 0.0623,0.6645 0.18689,0.68527 0.87215,1.14211 1.70278,1.14211 1.03828,0 1.97273,-0.51914 2.99024,-1.68202 0.56067,-0.62296 1.01752,-1.2667 1.37053,-1.8689 l -0.80986,-0.49837 c -0.76832,1.18364 -1.8066,2.30498 -2.15962,2.30498 -0.14536,0 -0.29072,-0.16613 -0.29072,-0.33225 0,-0.14536 0,-0.16613 0.20766,-0.93445 l 2.03503,-6.89418 z m -2.20115,0.85139 c 0.74756,0 1.2667,0.6022 1.2667,1.49512 0,1.05905 -0.45685,2.76182 -1.07981,4.09082 -0.60221,1.329 -1.34977,2.01427 -2.15963,2.01427 -0.78909,0 -1.2667,-0.62297 -1.2667,-1.64049 0,-1.10057 0.41531,-2.74106 1.01752,-3.98699 0.64373,-1.329 1.34976,-1.97273 2.22192,-1.97273 z"
   style="font-style:italic;font-weight:bold;font-family:C059;fill:#f2f2f2"
   id="path127" />

C059, Bold Italic&quot;;stroke:#000000;fill:#4d4d4d&quot;
             id=&quot;path46483&quot; /&gt;
          <path
   d="m 220.55855,124.56233 -5.54441,0.29072 -0.14536,0.97598 h 0.49837 c 1.03828,0 1.26671,0.12459 1.26671,0.64373 0,0.22843 -0.0831,0.58144 -0.31149,1.37053 l -2.42957,8.22318 c -0.37378,1.22517 -0.47761,1.70278 -0.47761,2.18039 0,1.14211 0.85139,1.88967 2.11809,1.88967 0.97598,0 1.74431,-0.33225 2.5957,-1.16288 0.7268,-0.66449 1.34976,-1.43282 1.78584,-2.22191 l -0.80986,-0.56068 c -0.83062,1.37053 -1.76507,2.34652 -2.22192,2.34652 -0.16612,0 -0.31148,-0.14536 -0.31148,-0.35302 0,-0.10383 0.0415,-0.33225 0.10383,-0.5399 0,0 0.0831,-0.22843 0.10383,-0.33225 z"
   style="font-style:italic;font-weight:bold;font-family:C059;fill:#f2f2f2"
   id="path129" />

C059, Bold Italic&quot;;stroke:#000000;fill:#4d4d4d&quot;
             id=&quot;path46485&quot; /&gt;
          <path
   d="m 226.33139,129.91985 c -2.5957,0 -4.21541,1.2667 -4.21541,3.30173 0,1.10058 0.45684,1.86891 1.49512,2.51264 0.43608,0.26995 0.5399,0.31149 1.74431,0.83063 0.87215,0.35301 1.2044,0.70603 1.2044,1.2667 0,0.80986 -0.83062,1.41206 -1.97273,1.41206 -0.76833,0 -1.30823,-0.22842 -1.30823,-0.51914 0,-0.0831 0.0415,-0.14536 0.10383,-0.18689 0.43607,-0.37378 0.5399,-0.56067 0.5399,-0.97599 0,-0.72679 -0.64373,-1.28746 -1.47435,-1.28746 -0.87216,0 -1.4536,0.58143 -1.4536,1.47435 0,1.43283 1.49513,2.38805 3.69628,2.38805 2.72029,0 4.54767,-1.34977 4.54767,-3.38479 0,-1.43283 -0.68527,-2.18039 -2.96948,-3.17714 -1.22517,-0.51914 -1.61972,-0.87216 -1.61972,-1.43283 0,-0.72679 0.76833,-1.24593 1.84814,-1.24593 0.62297,0 1.16287,0.20765 1.16287,0.43607 0,0.0623 -0.0415,0.1246 -0.12459,0.24919 -0.31149,0.39455 -0.37378,0.51914 -0.37378,0.85139 0,0.70603 0.6022,1.24594 1.43282,1.24594 0.85139,0 1.43283,-0.58144 1.43283,-1.4536 0,-1.34976 -1.53666,-2.30498 -3.69628,-2.30498 z"
   style="font-style:italic;font-weight:bold;font-family:C059;fill:#f2f2f2"
   id="path131" />

C059, Bold Italic&quot;;stroke:#000000;fill:#4d4d4d&quot;
             id=&quot;path46487&quot; /&gt;
        </g>
        <path
           style="fill:none;stroke:#000000;stroke-width:0.264583px;stroke-linecap:butt;stroke-linejoin:miter;stroke-opacity:1"
           d="m 60.216748,30.790003 11.979384,12.35984 z"
           id="path42365-7" />
        <rect
           style="fill:#800080;stroke:#121011;stroke-width:8.69571;stroke-linecap:square;stroke-linejoin:miter;stroke-miterlimit:4;stroke-dasharray:none;stroke-opacity:0.386379"
           id="rect46325"
           width="8.2511835"
           height="5.8798118"
           x="68.928352"
           y="-47.867573"
           transform="rotate(45)" />
      </g>
    </g>
  </g>
</svg>
